<svg width="1797" height="768" viewBox="0 0 1797 768" fill="none" xmlns="http://www.w3.org/2000/svg">
<g filter="url(#filter0_d_4_3154)">
<path d="M1154.69 703.688C1154.69 706.361 1152.52 708.532 1149.84 708.532C1147.17 708.532 1145 706.361 1145 703.688C1145 701.015 1147.17 698.845 1149.84 698.845C1152.52 698.845 1154.69 701.01 1154.69 703.688Z" stroke="#F0E184" stroke-opacity="0.1" stroke-width="2" stroke-miterlimit="10" stroke-linecap="round" stroke-linejoin="round"/>
<path d="M1201.68 745.696C1204.36 745.696 1206.52 743.528 1206.52 740.853C1206.52 738.178 1204.36 736.009 1201.68 736.009C1199.01 736.009 1196.84 738.178 1196.84 740.853C1196.84 743.528 1199.01 745.696 1201.68 745.696Z" stroke="#F0E184" stroke-opacity="0.1" stroke-width="2" stroke-miterlimit="10" stroke-linecap="round" stroke-linejoin="round"/>
<path d="M1183.44 730.895C1189.15 730.895 1193.77 726.27 1193.77 720.565C1193.77 714.86 1189.15 710.235 1183.44 710.235C1177.74 710.235 1173.11 714.86 1173.11 720.565C1173.11 726.27 1177.74 730.895 1183.44 730.895Z" stroke="#F0E184" stroke-opacity="0.1" stroke-width="2" stroke-miterlimit="10" stroke-linecap="round" stroke-linejoin="round"/>
<path d="M1201.44 720.565L1198 726.587L1196.17 733.291L1189.47 735.113L1183.44 738.563L1177.42 735.113L1170.71 733.291L1168.89 726.587L1165.44 720.565L1168.89 714.537L1170.71 707.833L1177.42 706.011L1183.44 702.561L1189.47 706.011L1196.17 707.833L1198 714.537L1201.44 720.565Z" stroke="#F0E184" stroke-opacity="0.1" stroke-width="2" stroke-miterlimit="10" stroke-linecap="round" stroke-linejoin="round"/>
<path d="M1196.84 740.853C1196.84 738.18 1199.01 736.009 1201.68 736.009C1203.12 736.009 1204.42 736.646 1205.31 737.65C1208.99 732.936 1211.2 727.01 1211.2 720.559C1211.2 705.228 1198.77 692.8 1183.44 692.8C1168.11 692.8 1155.68 705.228 1155.68 720.559C1155.68 735.891 1168.11 748.318 1183.44 748.318C1188.83 748.318 1193.85 746.779 1198.11 744.123C1197.33 743.26 1196.84 742.116 1196.84 740.853Z" stroke="#F0E184" stroke-opacity="0.1" stroke-width="2" stroke-miterlimit="10" stroke-linecap="round" stroke-linejoin="round"/>
<path d="M1183.44 683C1170.49 683 1159.07 689.558 1152.32 699.533C1153.73 700.378 1154.69 701.923 1154.69 703.694C1154.69 706.367 1152.52 708.538 1149.84 708.538C1149.18 708.538 1148.56 708.402 1147.99 708.165C1146.63 712.05 1145.89 716.217 1145.89 720.565C1145.89 741.309 1162.71 758.13 1183.45 758.13C1204.19 758.13 1221.01 741.309 1221.01 720.565C1221.01 699.82 1204.19 683 1183.44 683Z" stroke="#F0E184" stroke-opacity="0.1" stroke-width="2" stroke-miterlimit="10" stroke-linecap="round" stroke-linejoin="round"/>
<path d="M1295.84 80.2257L1272.54 72.3102C1270.07 71.4759 1268.76 68.7996 1269.59 66.3368C1270.43 63.8741 1273.1 62.5593 1275.56 63.3936L1298.86 71.3091C1301.33 72.1433 1302.64 74.8196 1301.81 77.2757C1300.97 79.7451 1298.3 81.0666 1295.84 80.2257Z" stroke="#F0E184" stroke-opacity="0.1" stroke-width="3" stroke-miterlimit="10"/>
<path d="M1292.78 89.2491L1269.47 81.3336C1267.01 80.4993 1265.69 77.823 1266.53 75.3669C1267.36 72.9042 1270.04 71.5893 1272.5 72.4236L1295.81 80.3325C1298.27 81.1667 1299.59 83.843 1298.75 86.3058C1297.91 88.7685 1295.24 90.0833 1292.78 89.2491Z" stroke="#F0E184" stroke-opacity="0.1" stroke-width="3" stroke-miterlimit="10"/>
<path d="M1272.06 39.0531C1272.09 39.1331 1272.11 39.2066 1272.13 39.2867C1272.66 40.9485 1275.73 51.4802 1274.44 63.1666L1299.45 71.4158C1305.37 61.2645 1314.11 54.6371 1315.52 53.6093C1315.58 53.5626 1315.65 53.5159 1315.71 53.4692C1316.39 52.9819 1317.05 52.4613 1317.69 51.9074C1321.46 48.6571 1324.42 44.379 1326.09 39.32C1331.01 24.4234 1322.92 8.35885 1308.02 3.44004C1293.12 -1.47878 1277.06 6.61024 1272.14 21.5068C1270.47 26.5725 1270.3 31.7716 1271.39 36.6237C1271.58 37.438 1271.8 38.2522 1272.06 39.0531Z" stroke="#F0E184" stroke-opacity="0.1" stroke-width="3" stroke-miterlimit="10"/>
<path d="M1270.75 81.8809C1270.47 86.8197 1273.51 91.5249 1278.44 93.1534C1283.29 94.7552 1288.47 92.8531 1291.22 88.8286L1270.75 81.8809Z" stroke="#F0E184" stroke-opacity="0.1" stroke-width="3" stroke-miterlimit="10"/>
<path d="M1282.27 65.616L1289.7 43.1043C1290.44 40.8884 1289.23 38.4991 1287.01 37.765C1284.8 37.0308 1282.41 38.2388 1281.67 40.4547C1280.94 42.6705 1282.15 45.0598 1284.36 45.7939L1293.28 48.7372" stroke="#F0E184" stroke-opacity="0.1" stroke-width="3" stroke-miterlimit="10"/>
<path d="M1292.07 68.853L1299.5 46.3413C1300.23 44.1255 1302.62 42.9241 1304.84 43.6516C1307.05 44.3857 1308.26 46.7751 1307.53 48.9909C1306.79 51.2067 1304.4 52.408 1302.19 51.6805L1293.27 48.7372" stroke="#F0E184" stroke-opacity="0.1" stroke-width="3" stroke-miterlimit="10"/>
<path d="M1331.37 47.0754L1338.9 49.5649" stroke="#F0E184" stroke-opacity="0.1" stroke-width="3" stroke-miterlimit="10" stroke-linecap="round"/>
<path d="M1334.82 37.5914L1342.66 36.4102" stroke="#F0E184" stroke-opacity="0.1" stroke-width="3" stroke-miterlimit="10" stroke-linecap="round"/>
<path d="M1326.1 55.2112L1331.69 60.8308" stroke="#F0E184" stroke-opacity="0.1" stroke-width="3" stroke-miterlimit="10" stroke-linecap="round"/>
<path d="M1261.44 23.9962L1253.91 21.5134" stroke="#F0E184" stroke-opacity="0.1" stroke-width="3" stroke-miterlimit="10" stroke-linecap="round"/>
<path d="M1264.32 14.3188L1258.73 8.69922" stroke="#F0E184" stroke-opacity="0.1" stroke-width="3" stroke-miterlimit="10" stroke-linecap="round"/>
<path d="M1260.84 33.667L1253 34.8483" stroke="#F0E184" stroke-opacity="0.1" stroke-width="3" stroke-miterlimit="10" stroke-linecap="round"/>
<path d="M1059.99 158.578L990.788 137.906C985.755 136.404 982.898 131.107 984.4 126.073L998.221 79.7884C999.723 74.7551 1005.02 71.8983 1010.05 73.4L1079.26 94.0728C1084.29 95.5746 1087.15 100.872 1085.65 105.905L1071.83 152.19C1070.32 157.217 1065.02 160.08 1059.99 158.578Z" stroke="#F0E184" stroke-opacity="0.1" stroke-width="4" stroke-miterlimit="10" stroke-linecap="round"/>
<path d="M986.031 120.6L1073.46 146.717" stroke="#F0E184" stroke-opacity="0.1" stroke-width="4" stroke-miterlimit="10" stroke-linecap="round"/>
<path d="M1029.96 141.244C1029.58 142.499 1028.26 143.215 1027 142.839C1025.75 142.464 1025.03 141.138 1025.41 139.883C1025.78 138.627 1027.11 137.911 1028.36 138.287C1029.62 138.662 1030.33 139.988 1029.96 141.244Z" fill="#F0E184" fill-opacity="0.5"/>
<path d="M1025.88 140.026C1026.18 139.035 1027.23 138.47 1028.22 138.766C1029.21 139.062 1029.77 140.109 1029.48 141.1C1029.18 142.091 1028.14 142.656 1027.14 142.36C1026.15 142.064 1025.59 141.017 1025.88 140.026Z" stroke="#F0E184" stroke-opacity="0.1"/>
<path d="M1035.2 151.179L1015.6 145.324L1012.96 154.166L1032.56 160.021L1035.2 151.179Z" stroke="#F0E184" stroke-opacity="0.1" stroke-width="4" stroke-miterlimit="10" stroke-linecap="round"/>
<path d="M1005.69 152.501L1039.53 162.609" stroke="#F0E184" stroke-opacity="0.1" stroke-width="4" stroke-miterlimit="10" stroke-linecap="round"/>
<path d="M1732.72 85.6356C1754.41 85.6356 1772 77.2995 1772 67.0164C1772 56.7333 1754.41 48.3972 1732.72 48.3972C1711.03 48.3972 1693.44 56.7333 1693.44 67.0164C1693.44 77.2995 1711.03 85.6356 1732.72 85.6356Z" stroke="#F0E184" stroke-opacity="0.1" stroke-width="3" stroke-miterlimit="10" stroke-linecap="round" stroke-linejoin="round"/>
<path d="M1748.6 76.7216C1759.89 58.193 1761.91 38.8378 1753.13 33.4906C1744.35 28.1434 1728.08 38.8291 1716.8 57.3577C1705.52 75.8863 1703.49 95.2415 1712.28 100.589C1721.06 105.936 1737.32 95.2503 1748.6 76.7216Z" stroke="#F0E184" stroke-opacity="0.1" stroke-width="3" stroke-miterlimit="10" stroke-linecap="round" stroke-linejoin="round"/>
<path d="M1753.12 100.58C1761.9 95.2332 1759.88 75.878 1748.6 57.3494C1737.32 38.8208 1721.05 28.1351 1712.27 33.4823C1703.49 38.8295 1705.51 58.1847 1716.79 76.7134C1728.07 95.242 1744.34 105.928 1753.12 100.58Z" stroke="#F0E184" stroke-opacity="0.1" stroke-width="3" stroke-miterlimit="10" stroke-linecap="round" stroke-linejoin="round"/>
<path d="M1732.72 71.945C1735.44 71.945 1737.65 69.7383 1737.65 67.0162C1737.65 64.2941 1735.44 62.0874 1732.72 62.0874C1730 62.0874 1727.79 64.2941 1727.79 67.0162C1727.79 69.7383 1730 71.945 1732.72 71.945Z" stroke="#F0E184" stroke-opacity="0.1" stroke-width="3" stroke-miterlimit="10" stroke-linecap="round" stroke-linejoin="round"/>
<path d="M1746.54 654.642L1714.1 662.13L1712.65 655.807C1712.31 654.342 1713.22 652.884 1714.68 652.542L1741.81 646.275C1743.28 645.94 1744.74 646.848 1745.08 648.313L1746.54 654.642Z" stroke="#F0E184" stroke-opacity="0.1" stroke-width="3" stroke-miterlimit="10" stroke-linecap="round"/>
<path d="M1735.88 620.643C1750.17 609.116 1752.42 588.182 1740.89 573.886C1729.36 559.589 1708.43 557.344 1694.13 568.872C1679.84 580.399 1677.59 601.333 1689.12 615.629C1700.65 629.925 1721.58 632.17 1735.88 620.643Z" stroke="#F0E184" stroke-opacity="0.1" stroke-width="3" stroke-miterlimit="10"/>
<path d="M1730.48 624.175L1699.47 565.349L1695.6 558.211C1675.38 568.866 1667.64 593.89 1678.29 614.106C1688.95 634.322 1713.97 642.067 1734.19 631.412L1730.4 624.224" stroke="#F0E184" stroke-opacity="0.1" stroke-width="3" stroke-miterlimit="10" stroke-linecap="round" stroke-linejoin="round"/>
<path d="M1706.3 578.239C1716.46 572.887 1723.16 565.654 1721.28 562.084C1719.4 558.515 1709.64 559.96 1699.49 565.313C1689.34 570.666 1682.63 577.899 1684.51 581.469C1686.4 585.038 1696.15 583.592 1706.3 578.239Z" stroke="#F0E184" stroke-opacity="0.1" stroke-width="3" stroke-miterlimit="10"/>
<path d="M1708.69 627.406C1715.86 628.788 1723.52 627.846 1730.48 624.175C1737.44 620.505 1742.55 614.713 1745.46 608.021C1738.3 606.639 1730.63 607.581 1723.67 611.252C1716.71 614.922 1711.6 620.714 1708.69 627.406Z" stroke="#F0E184" stroke-opacity="0.1" stroke-width="3" stroke-miterlimit="10"/>
<path d="M1730.51 624.139C1738.63 619.858 1738.27 603.218 1729.7 586.973C1721.14 570.728 1707.61 561.03 1699.49 565.312C1691.37 569.593 1691.73 586.233 1700.29 602.478C1708.86 618.723 1722.39 628.421 1730.51 624.139Z" stroke="#F0E184" stroke-opacity="0.1" stroke-width="3" stroke-miterlimit="10"/>
<path d="M1685.56 610.268L1744.39 579.257" stroke="#F0E184" stroke-opacity="0.1" stroke-width="3" stroke-miterlimit="10"/>
<path d="M1724.63 635.033L1728.07 649.353" stroke="#F0E184" stroke-opacity="0.1" stroke-width="3" stroke-miterlimit="10"/>
<path d="M1710.21 663.463L1751.56 653.547" stroke="#F0E184" stroke-opacity="0.1" stroke-width="3" stroke-miterlimit="10" stroke-linecap="round"/>
<path d="M1768.73 447.023L1786.04 429.719L1738.09 381.769L1720.78 399.073L1768.73 447.023Z" stroke="#F0E184" stroke-opacity="0.1" stroke-width="3" stroke-miterlimit="10" stroke-linecap="round" stroke-linejoin="round"/>
<path d="M1790.71 451.705L1786.03 429.715L1768.72 447.021L1790.71 451.705Z" stroke="#F0E184" stroke-opacity="0.1" stroke-width="3" stroke-miterlimit="10" stroke-linecap="round" stroke-linejoin="round"/>
<path d="M1788.53 441.445L1780.45 449.519" stroke="#F0E184" stroke-opacity="0.1" stroke-width="3" stroke-miterlimit="10" stroke-linecap="round" stroke-linejoin="round"/>
<path d="M1715.68 385.881L1724.88 376.68C1727.12 374.44 1730.75 374.44 1732.99 376.68L1738.07 381.768L1720.77 399.073L1715.68 393.985C1713.44 391.746 1713.44 388.112 1715.68 385.881Z" stroke="#F0E184" stroke-opacity="0.1" stroke-width="3" stroke-miterlimit="10" stroke-linecap="round" stroke-linejoin="round"/>
<path d="M1742.75 386.437L1725.45 403.75" stroke="#F0E184" stroke-opacity="0.1" stroke-width="3" stroke-miterlimit="10" stroke-linecap="round" stroke-linejoin="round"/>
<path d="M1777.38 438.368L1734.1 395.097" stroke="#F0E184" stroke-opacity="0.1" stroke-width="3" stroke-miterlimit="10" stroke-linecap="round" stroke-linejoin="round"/>
<path d="M416.027 656.206L412.842 663.466" stroke="#F0E184" stroke-opacity="0.1" stroke-width="4" stroke-miterlimit="10" stroke-linecap="round" stroke-linejoin="round"/>
<path d="M439.145 666.348L435.96 673.608" stroke="#F0E184" stroke-opacity="0.1" stroke-width="4" stroke-miterlimit="10" stroke-linecap="round" stroke-linejoin="round"/>
<path d="M462.269 676.484L459.084 683.743" stroke="#F0E184" stroke-opacity="0.1" stroke-width="4" stroke-miterlimit="10" stroke-linecap="round" stroke-linejoin="round"/>
<path d="M400.555 649.421L398.962 653.057" stroke="#F0E184" stroke-opacity="0.1" stroke-width="4" stroke-miterlimit="10" stroke-linecap="round" stroke-linejoin="round"/>
<path d="M408.29 652.82L406.698 656.444" stroke="#F0E184" stroke-opacity="0.1" stroke-width="4" stroke-miterlimit="10" stroke-linecap="round" stroke-linejoin="round"/>
<path d="M423.718 659.578L422.125 663.214" stroke="#F0E184" stroke-opacity="0.1" stroke-width="4" stroke-miterlimit="10" stroke-linecap="round" stroke-linejoin="round"/>
<path d="M431.449 662.97L429.862 666.6" stroke="#F0E184" stroke-opacity="0.1" stroke-width="4" stroke-miterlimit="10" stroke-linecap="round" stroke-linejoin="round"/>
<path d="M446.882 669.735L445.289 673.37" stroke="#F0E184" stroke-opacity="0.1" stroke-width="4" stroke-miterlimit="10" stroke-linecap="round" stroke-linejoin="round"/>
<path d="M470.38 680.04L468.793 683.671" stroke="#F0E184" stroke-opacity="0.1" stroke-width="4" stroke-miterlimit="10" stroke-linecap="round" stroke-linejoin="round"/>
<path d="M454.612 673.127L453.026 676.757" stroke="#F0E184" stroke-opacity="0.1" stroke-width="4" stroke-miterlimit="10" stroke-linecap="round" stroke-linejoin="round"/>
<path d="M457.268 738.09L380.93 640.82L480.731 684.577L457.268 738.09Z" stroke="#F0E184" stroke-opacity="0.1" stroke-width="4" stroke-miterlimit="10" stroke-linecap="round" stroke-linejoin="round"/>
<path d="M453.378 707.39L432.494 680.781L459.793 692.745L453.378 707.39Z" stroke="#F0E184" stroke-opacity="0.1" stroke-width="4" stroke-miterlimit="10" stroke-linecap="round" stroke-linejoin="round"/>
<path d="M643.774 23.9999L615 37.9121L672.351 156.527L701.124 142.614L643.774 23.9999Z" stroke="#F0E184" stroke-opacity="0.1" stroke-width="4" stroke-miterlimit="10" stroke-linecap="round" stroke-linejoin="round"/>
<path d="M650.64 38.2336L636.26 45.1836" stroke="#F0E184" stroke-opacity="0.1" stroke-width="4" stroke-miterlimit="10" stroke-linecap="round" stroke-linejoin="round"/>
<path d="M663.93 65.7136L649.54 72.6736" stroke="#F0E184" stroke-opacity="0.1" stroke-width="4" stroke-miterlimit="10" stroke-linecap="round" stroke-linejoin="round"/>
<path d="M677.22 93.1936L662.83 100.154" stroke="#F0E184" stroke-opacity="0.1" stroke-width="4" stroke-miterlimit="10" stroke-linecap="round" stroke-linejoin="round"/>
<path d="M690.5 120.684L676.12 127.634" stroke="#F0E184" stroke-opacity="0.1" stroke-width="4" stroke-miterlimit="10" stroke-linecap="round" stroke-linejoin="round"/>
<path d="M655.04 47.3335L647.85 50.8035" stroke="#F0E184" stroke-opacity="0.1" stroke-width="4" stroke-miterlimit="10" stroke-linecap="round" stroke-linejoin="round"/>
<path d="M659.48 56.5237L652.29 60.0037" stroke="#F0E184" stroke-opacity="0.1" stroke-width="4" stroke-miterlimit="10" stroke-linecap="round" stroke-linejoin="round"/>
<path d="M668.35 74.8635L661.16 78.3335" stroke="#F0E184" stroke-opacity="0.1" stroke-width="4" stroke-miterlimit="10" stroke-linecap="round" stroke-linejoin="round"/>
<path d="M672.79 84.0537L665.6 87.5337" stroke="#F0E184" stroke-opacity="0.1" stroke-width="4" stroke-miterlimit="10" stroke-linecap="round" stroke-linejoin="round"/>
<path d="M681.66 102.394L674.47 105.864" stroke="#F0E184" stroke-opacity="0.1" stroke-width="4" stroke-miterlimit="10" stroke-linecap="round" stroke-linejoin="round"/>
<path d="M686.11 111.583L678.91 115.063" stroke="#F0E184" stroke-opacity="0.1" stroke-width="4" stroke-miterlimit="10" stroke-linecap="round" stroke-linejoin="round"/>
<path d="M44.0008 624.631L12.7708 639.301C11.1008 640.091 9.11082 639.371 8.32082 637.701L6.32082 633.441C5.53082 631.771 6.2508 629.781 7.9208 628.991L39.1508 614.321C40.8208 613.531 42.8108 614.251 43.6008 615.921L45.6008 620.181C46.3908 621.861 45.6708 623.851 44.0008 624.631Z" stroke="#F0E184" stroke-opacity="0.1" stroke-width="4" stroke-miterlimit="10" stroke-linecap="round"/>
<path d="M56.1309 657.951L40.851 626.131L16.1309 638.001L31.4109 669.821L41.0509 723.061C44.2209 729.671 52.1509 732.451 58.7509 729.281L85.4409 716.461C92.0509 713.291 94.8309 705.361 91.6609 698.761L56.1309 657.951Z" stroke="#F0E184" stroke-opacity="0.1" stroke-width="4" stroke-miterlimit="10" stroke-linecap="round"/>
<path d="M35.751 693.831C35.751 693.831 40.851 685.571 54.411 686.041C67.971 686.511 70.251 674.161 70.251 674.161" stroke="#F0E184" stroke-opacity="0.1" stroke-width="4" stroke-miterlimit="10" stroke-linecap="round"/>
<path d="M87.48 109.96C99.3431 109.96 108.96 100.343 108.96 88.48C108.96 76.6169 99.3431 67 87.48 67C75.617 67 66 76.6169 66 88.48C66 100.343 75.617 109.96 87.48 109.96Z" stroke="#F0E184" stroke-opacity="0.1" stroke-width="4" stroke-miterlimit="10" stroke-linecap="round" stroke-linejoin="round"/>
<path d="M117.59 131.18C122.334 131.18 126.18 127.334 126.18 122.59C126.18 117.846 122.334 114 117.59 114C112.846 114 109 117.846 109 122.59C109 127.334 112.846 131.18 117.59 131.18Z" stroke="#F0E184" stroke-opacity="0.1" stroke-width="4" stroke-miterlimit="10" stroke-linecap="round" stroke-linejoin="round"/>
</g>
<defs>
<filter id="filter0_d_4_3154" x="-0.000976562" y="0.499512" width="1796.21" height="766.63" filterUnits="userSpaceOnUse" color-interpolation-filters="sRGB">
<feFlood flood-opacity="0" result="BackgroundImageFix"/>
<feColorMatrix in="SourceAlpha" type="matrix" values="0 0 0 0 0 0 0 0 0 0 0 0 0 0 0 0 0 0 127 0" result="hardAlpha"/>
<feOffset dy="4"/>
<feGaussianBlur stdDeviation="2"/>
<feComposite in2="hardAlpha" operator="out"/>
<feColorMatrix type="matrix" values="0 0 0 0 0 0 0 0 0 0 0 0 0 0 0 0 0 0 0.25 0"/>
<feBlend mode="normal" in2="BackgroundImageFix" result="effect1_dropShadow_4_3154"/>
<feBlend mode="normal" in="SourceGraphic" in2="effect1_dropShadow_4_3154" result="shape"/>
</filter>
</defs>
</svg>
